<svg xmlns="http://www.w3.org/2000/svg" width="19" height="18">
    <path fill="#02981D" fill-rule="evenodd" d="M1.034 0h.259c.567 1.254.189 2.905 1.163 3.684.678.543 1.848.214 2.456.953v.064c-1.789-.554-3.215.62-3.813 1.842-.069-1.379.751-1.454.646-2.605-.05-.549-.568-1.299-.905-1.651-.291-.306-.832-.537-.84-.89C-.013.822.77.509 1.034 0z"/>
    <path fill="#E3001C" fill-rule="evenodd" d="M18.999 15.288v.255c-1.397 1.365-2.986 2.249-4.911 2.414-3.64.311-6.218-1.199-8.272-2.923-1.599-1.341-3.448-3.365-3.49-5.908-.026-1.589.824-2.804 2.003-3.113 2.505-.656 4.036 2.355 4.847 3.748 1.225 2.104 2.519 4.944 4.653 5.908 1.691.764 3.767.117 5.17-.381z"/>
</svg>
