<svg xmlns="http://www.w3.org/2000/svg" width="19" height="14">
    <path fill="#4AAA19" fill-rule="evenodd" d="M-.007.124C-.035.061-.017.018.068.007 3.136-.124 5.617.369 7.92 1.135c2.304.766 4.174 2.153 4.851 4.486l.193 1.031c.178 1.999-.334 4.124-1.303 5.722-.325.537-.611 1.136-1.271 1.481-.682-3.872-2.293-6.776-4.699-8.854.21.575.602 1.124.908 1.756.288.594.548 1.249.793 1.916.489 1.333 1.038 2.82 1.093 4.303.012.314-.053.899-.393 1.005-.461.142-1.449-.434-1.756-.597C3.85 12.06 2.12 9.505 1.696 6.138 1.427 4.009 2.109 1.192-.007.124z"/>
</svg>
