<svg xmlns="http://www.w3.org/2000/svg" width="18" height="32">
    <path fill="#FFF" fill-rule="evenodd" d="M13.276 5.67c2.823.631 6.553 5.789 3.252 8.183.943.926 1.668 1.957 1.161 3.54-.146.458-1.156 1.252-1.161 1.436-.008.328 1.145 1.18 1.278 1.881.184.978-.148 1.683-.581 2.322-.127.188-.698.804-.697.774-.005.188 1.185 1.413 1.278 1.88.608 3.053-.193 5.842-2.904 6.193-1.628.211-3.769 0-5.691 0-3.803 0-7.646.583-8.247-2.433-.458-2.3-.067-4.668 1.278-5.529C1.53 22.928.633 22.463.964 20.71c.128-.676 1.265-1.483 1.278-1.77.013-.29-1.12-1.046-1.278-1.88-.288-1.525.397-2.288 1.278-3.096-2.993-2.68.071-7.613 3.252-8.183.048-2.22-.417-4.191 1.278-4.756C8.04.602 10.598.649 11.766.915c2.147.489 1.362 2.753 1.51 4.755zM6.888 2.352c-.238.769-.063 1.932-.116 2.876h5.226c-.053-.944.122-2.107-.116-2.876-1.191-.358-3.803-.358-4.994 0zm9.059 22.56c-.586-.507-2.143-.379-1.974-1.217.106-.525 1.087-.366 1.626-.663 1.127-.62 1.221-2.523.232-3.207-.946-.655-2.081-.09-1.858-1.106.122-.557 1.559-.534 1.974-.885 1.105-.935.495-2.64-.348-3.096-.478-.259-1.504-.071-1.626-.664-.175-.845 1.715-.885 2.09-1.216 1.332-1.174-.208-3.959-1.045-4.755-2.412-2.297-9.09-2.356-11.498.221-.971 1.038-2.066 3.849-.465 4.755.58.329 1.796.025 1.742.885-.039.62-1.53.619-1.974.995-.752.636-.902 2.099 0 2.875.373.322 1.932.396 1.974.995.068.974-1.159.418-1.974 1.106-1.05.886-.583 2.6.348 3.097 1.304.695 1.603-.088 1.626.774.021.788-1.993.906-2.323 1.437-.45.727-.393 3.324-.232 3.981.499 2.036 3.901 1.438 7.085 1.438 3.493 0 6.477.54 7.201-1.327-.214-1.583.499-3.49-.581-4.423z" opacity=".702"/>
</svg>
