<svg xmlns="http://www.w3.org/2000/svg" width="32" height="32">
    <path fill="#FFF" fill-rule="evenodd" d="M-.01 31.964c-.109-1.434.713-2.785 1.247-4.031 2.648-6.18 5.435-12.648 8.162-19.262.456-1.105 1.052-2.477 1.587-3.919C11.423 3.574 11.958.5 13.14.72c4.647.868 8.906 3.694 11.903 6.607 2.035 1.978 4.063 5.172 5.441 8.399.425.993 1.273 2.75 1.021 3.584-.239.79-2.644 1.38-3.855 1.792-6.93 2.355-13.18 5.252-19.725 7.95-1.299.537-2.66 1.032-3.968 1.568-1.266.52-2.472 1.44-3.967 1.344zM13.253 1.952c-.404 1.281-.929 2.442-1.247 3.808 7.084 2.558 11.926 7.331 14.511 14.334 1.332-.326 2.544-.772 3.741-1.232C27.56 10.29 21.947 4.6 13.253 1.952zM11.44 6.88c-.438 1.098-.877 2.194-1.361 3.246 2.514.031 4.073 1.221 4.308 3.249.442 3.813-4.503 5.717-6.802 2.799-.808 1.703-1.467 3.553-2.267 5.264 3.86-.14 3.374 5.535-.34 4.927-.626-.102-.95-.664-1.474-.672-.429 1.592-1.525 3.122-1.701 4.591 3.216-1.527 6.849-2.642 9.976-4.255-.817-.4-1.304-.843-1.587-1.568-1.996-5.129 7.672-5.778 5.895-.112 3.184-1.148 6.119-2.541 9.296-3.695C22.93 13.895 18.292 9.293 11.44 6.88zm-.227 9.518c3.429-.637 1.779-6.436-1.701-4.815-.487 1.012-.902 2.095-1.36 3.135.636 1.3 1.76 1.922 3.061 1.68zm0 6.943c.043 2.561 4.049 2.449 3.854-.223-.087-1.189-1.087-1.94-2.494-1.569-1.152.305-1.371 1.154-1.36 1.792zm-4.421.224c-.317-1.455-2.888-1.071-2.495.896.898 1.318 2.807.541 2.495-.896z"/>
</svg>
