<svg xmlns="http://www.w3.org/2000/svg" width="32" height="32">
    <path fill="#FFF" fill-rule="evenodd" d="M29.313 24.424c-1.22 2.188-3.099 4.647-5.61 5.894-4.786 2.378-13.351 2.343-17.614-1.112-1.892-1.534-3.107-3.415-4.263-5.784-.81-1.657-2.441-5.112-1.571-8.118.242-.837.961-1.353 1.795-1.89.606-.39 1.655-1.322 2.468-.556-.467 1.889-3.131 1.155-3.141 3.114-.01 1.877 3.784 2.743 6.058 3.225 6.317 1.338 14.913 1.302 20.307-1.001 1.039-.443 2.425-1.229 2.468-2.113.117-2.357-4.594-2.278-5.609-3.671.058-.164.166-.279.224-.444.082-.104.204-.169.337-.222 2.378.825 5.457 1.232 6.17 3.447.94 2.919-1.061 7.512-2.019 9.231zm-.225-5.45c-6.808 3.527-21.181 2.939-27.487-.556-.006-.068-.017-.131-.112-.111.788 4.073 3.103 8.503 5.946 10.343 3.886 2.515 10.817 2.651 15.146.778 4.265-1.844 6.286-6.135 7.517-10.898-.317-.343-.662.264-1.01.444zM5.079 11.189c-.036-1.617.752-3.6 2.244-4.115C6.345 5.362 4.934 3.528 5.191.957c1.177-.876 1.104.769 1.347 1.78.3 1.251 1.114 2.461 1.458 2.892 1.012-1.63 2.107-3.063 4.6-3.003 3.133.075 6.232 3.172 8.078 5.339 2.25 2.64 3.483 5.808 5.049 8.229-5.626 4.221-20.464 3.077-20.644-5.005zm9.312-6.895c-.298-.14-.884-.389-1.234-.445-1.995-.318-4.282 1.421-4.151 2.892.066.741 1.473 1.658 2.131 2.224 1.792 1.541 3.219 2.575 5.049 3.67.849.508 2.283.8 2.468 2.002-1.019.669-2.141-.425-2.917-.889-2.826-1.697-5.426-3.82-7.741-5.783-1.452.654-2.004 2.799-1.458 4.447 1.768 5.342 12.265 6.209 17.502 3.337-1.889-3.65-5.376-9.44-9.649-11.455z" opacity=".702"/>
</svg>
