<svg xmlns="http://www.w3.org/2000/svg" width="34" height="26">
    <path fill="#FFF" fill-rule="evenodd" d="M32.42 11.906c.154.942-.213 1.416 0 2.205.239.883 1.169 1.233 1.297 1.974.255 1.464-.483 2.095-1.297 3.018.127 2.896.226 6.232-2.476 6.617-1.916.273-4.187 0-6.368 0H10.841c-3.805 0-8.134.673-8.726-2.554-.222-1.207.339-2.692 0-3.947-.18-.663-1.134-1.006-1.298-1.973-.239-1.419.344-1.929 1.298-3.019v-2.205C1.811 11.27.96 11.548.817 10.861c-.174-.842.982-1.45 1.298-2.206.236-3.68 2.692-7.089 6.839-7.545 2.841-.313 5.388 0 8.255 0 2.713 0 5.607-.267 8.254 0 3.102.313 5.257 2.361 6.25 4.643.382.88.324 1.757.707 2.786.413 1.105 2.72 2.704 0 3.367zM4.119 24.094c.93.666 4.305.349 6.368.349h13.679c1.945 0 5.477.32 6.368-.465.933-.821.498-3.449.589-4.759H3.53c-.138.019-.128.183-.118.348.052 1.48-.309 3.801.707 4.527zM2.35 17.478c.676.916 5.696.463 7.311.463h15.566c1.98 0 6.796.507 7.193-.695.901-2.724-4.127-1.858-6.839-1.858H10.487c-1.78 0-6.383-.454-7.665.116-.897.4-.883 1.415-.472 1.974zm28.773-3.367v-1.973c-1.396.097-2.245-.345-3.184-.697-1.526 1.395-5.173 1.299-6.721 0-1.923 1.673-5.93 1.513-7.901 0-1.488 1.431-5.195 1.283-6.721 0-.851.44-1.783.799-3.184.697v1.973h27.711zM25.581 2.386c-2.268-.297-5.342 0-8.254 0-2.963 0-6.03-.259-8.255 0-3.497.409-5.091 2.965-5.66 5.805h27.711c-.499-2.604-2.068-5.349-5.542-5.805zm4.009 7.081H3.176c-.292.293-.611.56-.708 1.046 1.363.815 3.324.094 4.363-.465 1.742 1.597 4.785 1.356 6.604 0 2.116 1.673 5.779 1.66 7.901 0 1.624 1.446 4.979 1.44 6.603 0 .953.613 2.944 1.247 4.245.465-.288-1.249-1.617-1.046-2.594-1.046zM8.836 3.779c.534-.124.9.062 1.061.348.901 1.597-1.829 2.017-1.886.581-.015-.368-.015-.732.825-.929zm2.83 3.599c-.876.333-1.542.013-1.651-.58-.335-1.831 3.048-1.141 1.651.58zM12.963 3.2c.9.86-.282 2.327-1.415 1.508-.62-.928.24-2.05 1.415-1.508z"/>
</svg>
