<svg xmlns="http://www.w3.org/2000/svg" width="35" height="27">
    <path fill="#FFF" fill-rule="evenodd" d="M33.329 21.889c-.468 2.493.328 4.026-1.686 4.674-1.407.453-4.343.12-6.861.12H10.818c-2.114 0-5.334.422-6.861-.12-2.024-.719-1.105-2.744-1.565-4.794C2.12 20.56.716 19.657.947 18.053v-.239c-.021-1.878 1.391-2.734 1.565-4.075.142-1.094-.24-1.97-.12-2.757.181-1.196.889-2.315 1.805-3.116.886-.774 1.79-.632 2.769-1.318.725-.508.952-1.601 1.324-2.038.394-.463 1.115-1.075 1.926-1.438 1.179-.528 1.98-.3 3.01-.6 1.357-.393 1.972-1.355 3.129-1.677.642-.179 1.203-.265 1.806-.239 2.115.088 2.597 1.419 4.454 1.916.917.246 1.972.115 3.009.6.672.314 1.408.958 1.806 1.438.501.605.606 1.524 1.324 2.038.91.65 1.896.612 2.528 1.079.659.486 1.179 1.18 1.565 2.036.607 1.348.024 2.484.361 4.315.191 1.036 1.098 1.653 1.324 2.757.517 2.52-.902 3.545-1.203 5.154zM3.114 15.776c-.158.154-.583.61-.722 1.199-.159.674.056 2.532.12 1.318.128-.643.766-2.875.602-2.517zM30.44 8.585c-.91-.637-1.989-.574-2.649-1.079-.729-.558-.888-1.755-1.685-2.516-1.14-1.09-2.666-.719-4.334-1.318-.854-.308-1.493-1.23-2.407-1.559-2.685-.966-3.754.957-5.538 1.559-1.102.371-2.855.206-3.972 1.078-.923.72-1.238 2.15-2.046 2.756-.623.468-1.434.513-2.047.84-1.878 1-2.372 3.229-1.926 5.753 2.571-4.91 7.121-8.898 14.205-8.87 6.918.028 11.2 4.117 13.843 8.749.318-2.229.09-4.317-1.444-5.393zm1.565 10.666c-.632-7.147-6.785-12.846-14.446-12.703-7.213.135-13.252 5.552-13.843 12.823-.061.744 0 2.156 0 2.997 0 .564-.188 2.283.361 2.757.841.725 4.986.24 6.741.24 7.227 0 14.444.194 20.825-.24.516-1.969.541-3.847.362-5.874zm.481-3.475c.477.804.485 2.075.843 2.997.191-1.321-.366-3.136-.843-2.997zm-20.585 6.952c-1.001.065-2.395-1.889-.601-2.517 2.431-.852 2.075 2.421.601 2.517zm-2.166-6.233c.042-.421.401-.946 1.203-1.078.984-.163 1.5.428 1.565 1.078.18 1.807-2.991 2.233-2.768 0zm-3.251 2.876c.075-.645.428-1.012 1.325-1.078.833-.061 1.224.377 1.324.958.344 2.001-2.913 2.398-2.649.12z" opacity=".702"/>
</svg>
