<svg xmlns="http://www.w3.org/2000/svg" width="201" height="54">
    <path fill="#FFF" fill-rule="evenodd" d="M187.839 24.38c-2.665 3.443-6.395 6.109-11.138 6.706-5.621.708-9.073-1.81-9.981-6.334-3.067 4.787-6.423 8.4-10.587 8.925-4.157.523-8.58-2.026-4.743-11.99l1.705-4.554c.427-1.125.48-1.667.48-1.935 0-1.071-1.173-1.888-2.611-2.938-1.439 3.554-2.771 6.346-4.262 9.158v.002c-4.156 7.808-9.325 14.619-15.827 15.438-5.542.698-6.235-3.661-6.235-3.661s-3.677 4.909-8.367 5.5c-3.736.471-5.748-2.038-5.995-5.518-3.035 4.212-6.38 7.077-10.79 7.632-6.608.832-8.1-4.282-13.696 1.029l-2.771-3.347 16.627-17.199c-1.652-.113-3.624-.883-5.862-.601-2.451.309-3.57 1.736-7.034 8.277l.001.001c-4.476 8.277-8.74 14.545-15.508 15.398-6.608.832-8.1-4.283-13.695 1.028l-2.771-3.347 16.626-17.199c-1.652-.113-3.623-.883-5.862-.601-2.451.309-3.57 1.736-7.034 8.277l.001.001c-4.104 7.748-9.433 14.633-15.561 15.404-4.849.611-8.26-2.815-4.37-13l6.022-15.703 8.473-1.068-6.555 17.216c-2.451 6.416-1.492 7.045-.586 6.931 2.132-.269 5.809-4.481 9.592-11.546v-.001c4.476-8.383 5.702-14.323 12.097-15.128 4.369-.551 8.366 1.624 13.589-1.016l2.771 3.347-15.614 16.268c2.451.067 4.423 1.8 7.141 1.458 1.971-.249 4.636-1.709 8.259-8.485l-.001-.001c4.477-8.384 5.703-14.323 12.097-15.129 4.37-.55 8.367 1.625 13.59-1.015l2.771 3.347L96.61 30.675c2.452.066 4.424 1.8 7.141 1.458 1.925-.243 4.513-1.655 8.006-8.026 2.078-6.872 6.364-14.835 13.203-15.696 5.169-.651 6.341 3.54 6.341 3.54l9.966-4.898-6.608 17.223c-2.398 6.355-1.492 7.044-.533 6.923 2.131-.268 5.755-4.473 9.591-11.544l-.001-.002c1.172-2.237 2.665-5.477 4.21-9.1-.959-.897-1.652-1.72-1.652-3.059 0-2.732 2.824-5.98 5.009-6.952l3.464 1.492-1.705 4.5c2.185 1.653 8.74 3.827 8.74 7.845 0 .642-.16 1.466-.64 2.758l-1.492 3.991c-2.451 6.308-1.172 7.004-.426 6.91 1.471-.186 3.98-3.736 7.982-11.053 1.795-6.833 6.918-14.767 15.784-15.883 6.448-.813 10.018 2.487 10.018 8.701 0 2.946-.799 6.635-2.398 10.104 2.611-.757 5.223-3.068 7.407-7.093 1.12-.034 2.558.803 2.985 1.767-2.878 5.344-7.727 9.543-13.163 9.799zm-61.174-9.221c-4.21.53-8.153 11.044-8.153 14.472 0 1.392.639 1.901 1.705 1.766 2.931-.368 5.382-4.534 5.382-4.534l3.464-9.006s-.053-2.993-2.398-2.698zm56.218-8.473c-4.21.53-8.313 12.295-8.313 16.259 0 1.714.799 2.738 2.078 2.577 1.279-.161 2.611-1.4 3.784-3.101-.746-.71-1.173-1.674-1.173-2.852 0-2.41 1.919-4.634 4.53-4.856.746-2.183 1.172-4.165 1.172-5.504 0-1.981-.959-2.664-2.078-2.523zM51.582 16.1c-2.611.329-4.689-1.606-4.689-4.123 0-2.625 2.078-4.922 4.689-5.251 2.505-.315 4.69 1.445 4.69 4.069 0 2.518-2.185 4.989-4.69 5.305zM15.4 36.94L9.645 52.127l-8.473 1.068 11.884-31.172c1.492-3.883 5.222-8.424 10.551-9.095l1.546 4.412s-2.718 1.467-4.317 5.525l-3.251 8.39c6.289 2.743 14.495-3.593 14.495-11.842 0-4.339-2.344-9.56-10.551-8.526-9.486 1.194-14.495 9.003-14.495 14.252 0 2.571 1.226 4.773 1.226 4.773l-5.649 4.943s-2.612-3.688-2.612-8.723c0-7.713 6.129-19.948 21.53-21.888 13.109-1.651 18.652 6.007 18.652 14.095 0 11.141-10.445 22.742-24.781 18.601z"/>
</svg>
