<svg xmlns="http://www.w3.org/2000/svg" width="29" height="32">
    <path fill="#FFF" fill-rule="evenodd" d="M.645 12.582v-.224c.257-.68 1.502-.388 2.389-.448-.248-2.745-1.095-5.48-1.024-8.168 1.474-.378 3.134-.573 4.664-.896.042-.652-.367-1.492.113-1.902C8.474.799 10.626.562 12.361.832c.119.555.202 1.145.227 1.79h3.868c.226-.56-.077-1.641.455-1.902 1.675-.001 4.215.102 5.573.784 0 1.203-.332 2.643-.227 3.58 1.632.297 3.911-.043 4.891.896-.247 2.07-.773 3.865-1.024 5.93.844.065 1.998-.176 2.502.224-1.587 6.831-3.501 13.341-5.573 19.694-5.348.187-11.487.185-16.834 0-1.955-6.32-3.644-12.902-5.574-19.246zM7.811 2.176c.533 4.36.994 8.793 1.365 13.314 1.062.672 2.17 1.894 3.754 1.68-.676-4.968-1.045-10.237-1.707-15.219-1.226-.012-2.419.008-3.412.225zm10.123-.225c-.641 4.852-1.108 10.473-1.251 15.442 1.288-.411 2.444-.952 3.299-1.79.246-4.569.907-8.731 1.137-13.316-1.082-.092-2.103-.244-3.185-.336zm-5.118 2.238c.115 2.206.445 4.477.682 6.714.242 2.271.229 4.622.91 6.602h.797c.495-4.436.825-9.034 1.137-13.651h-3.64c-.005.154.054.245.114.335zm-5.005 8.952c-.462-2.903-.635-6.088-1.024-9.063-1.146.252-2.434.365-3.526.671.262 2.465.746 4.712 1.024 7.161.883.065 2.033-.135 2.73.112.434.135.409 1.309.796 1.119zm13.649.671c.381-.521.46-1.338.91-1.79.624-.245 1.694-.049 2.503-.112.186-1.869.642-3.471.91-5.259-1.308-.056-2.39-.335-3.754-.336-.084 2.529-.644 5.185-.569 7.497zM7.129 30.709h15.128c1.617-5.906 3.318-11.73 5.004-17.568h-4.094c-1.235 2.837-3.577 5.242-7.28 5.595-4.987.475-8.259-2.104-9.668-5.595-1.328.074-2.957-.148-4.095.112 1.745 5.744 3.375 11.6 5.005 17.456z" opacity=".702"/>
</svg>
