<svg xmlns="http://www.w3.org/2000/svg" width="21" height="32">
    <path fill="#FFF" fill-rule="evenodd" d="M19.182 24.873c-.252 1.729-.366 3.67-.922 4.79-1.068 2.148-4.271 2.376-7.724 2.28-2.23-.061-4.812.029-6.224-.57-2.413-1.023-2.247-3.974-2.652-6.956C1.162 20.745.697 17.328.392 13.81c-.154-1.789-.548-3.759-.345-5.702C1.168-2.64 20.825-3.026 20.795 8.907v.228c-.211 4.676-.931 11.042-1.613 15.738zm-16.254-.57c.234 1.735.185 3.724.692 4.789.816 1.714 3.31 1.333 5.302 1.483-3.451-3.72-3.262-13.813-.23-18.247-2.287-1.159-5.337-1.562-7.377-2.965.225 4.348.99 10.315 1.613 14.94zM14.571 7.424c-.244.101-.341.347-.692.342-1.234-1.25-1.687-3.274-4.15-3.308.14 1.041 1.111 4.209-.807 3.65-.262-.538.009-1.605-.23-2.166-2.674.129-4.158 1.436-5.072 3.307 2.08.565 4.148 1.142 5.879 2.053 1.658-1.819 5.084-1.889 7.492-2.965-.317-1.397-1.196-2.238-2.766-2.395.003.605.488.733.346 1.482zm2.075-4.562C13.437.527 6.508.771 3.505 3.66 2.314 4.806.587 7.52 2.467 8.564c1.22-2.1 3.081-3.566 5.994-3.992-.211-.334-.445-.821-.23-1.253 2.114-.753 3.982.586 5.187 1.482 2.558-.419 4.081 1.117 4.842 2.851 1.466-1.709-.409-3.913-1.614-4.79zm2.651 5.475c-1.867 2.352-6.278 1.561-8.53 3.421-1.034.854-1.768 2.812-2.306 4.447-1.716 5.224-1.031 12.308 2.882 14.485 1.898-.338 4.235.182 5.418-1.027.814-.833.908-3.528 1.153-5.246.654-4.601 1.822-12.497 1.383-16.08zm-5.879 10.948c.376-.134.714-.085.807.342.37 1.705-2.398.224-.807-.342zm-1.614-1.369c-1.239.109-2.144-1.815-.691-2.395 2.112-.844 2.265 2.257.691 2.395z" opacity=".702"/>
</svg>
